<svg data-v-fde0c5aa="" xmlns="http://www.w3.org/2000/svg" viewBox="0 0 300 300" class="iconAbove">
    <!---->
    <defs data-v-fde0c5aa="">
        <!---->
    </defs>
    <rect data-v-fde0c5aa="" fill="#887FAF" x="0" y="0" width="300px" height="300px" class="logo-background-square">
    </rect>
    <defs data-v-fde0c5aa="">
        <!---->
    </defs>
    <g data-v-fde0c5aa="" id="f3cd5ca4-e752-44bd-b900-b387483c4c47" fill="#FFFFFF"
        transform="matrix(3.0930285980657137,0,0,3.0930285980657137,16.38115630428376,164.5983823229499)">
        <path
            d="M5.34 3.82L1.17 3.82L1.17 13.15L2.65 13.15L2.65 9.45L5.34 9.44C6.83 9.44 8.33 8.44 8.33 6.64C8.33 4.81 6.83 3.82 5.34 3.82ZM4.78 8.30L2.65 8.27L2.65 5.00L4.78 4.97C6.10 4.97 6.78 5.59 6.78 6.64C6.78 7.70 6.10 8.31 4.78 8.30ZM14.34 13.34C17.31 13.34 19.28 11.17 19.28 8.46C19.28 5.75 17.31 3.59 14.34 3.59C11.36 3.59 9.39 5.75 9.39 8.46C9.39 11.17 11.36 13.34 14.34 13.34ZM14.34 12.02C12.25 12.02 10.94 10.37 10.94 8.46C10.94 6.53 12.25 4.91 14.34 4.91C16.42 4.91 17.73 6.53 17.73 8.46C17.73 10.37 16.42 12.02 14.34 12.02ZM27.15 3.82L19.95 3.82L19.95 5.09L22.82 5.09L22.82 13.15L24.31 13.15L24.31 5.09L27.15 5.09ZM31.37 13.34C33.18 13.34 34.88 12.57 34.88 10.60C34.88 9.04 33.64 8.33 32.27 7.85C30.71 7.28 29.82 6.90 29.82 6.14C29.82 5.40 30.54 4.87 31.49 4.87C32.29 4.87 32.94 5.12 33.63 5.69L34.59 4.71C33.85 4.08 32.96 3.59 31.34 3.59C29.71 3.59 28.28 4.62 28.28 6.17C28.28 7.86 29.82 8.44 31.35 8.98C32.38 9.36 33.31 9.76 33.31 10.69C33.31 11.61 32.35 12.06 31.32 12.06C30.16 12.06 29.39 11.74 28.70 10.89L27.65 11.91C28.48 12.85 29.60 13.34 31.37 13.34ZM46.59 3.82L39.39 3.82L39.39 5.09L42.26 5.09L42.26 13.15L43.75 13.15L43.75 5.09L46.59 5.09ZM50.62 6.36C49.83 6.36 49.31 6.74 48.93 7.41L48.75 6.53L47.53 6.53L47.53 13.15L48.94 13.15L48.94 9.70C48.94 8.62 49.51 7.66 50.55 7.66C50.78 7.66 51.00 7.70 51.19 7.79L51.61 6.58C51.44 6.47 51.06 6.36 50.62 6.36ZM54.50 13.34C55.43 13.34 56.31 12.94 56.76 12.31L56.98 13.15L58.17 13.15L58.17 9.19C58.17 7.31 57.20 6.36 55.24 6.36C54.26 6.36 53.45 6.61 52.82 7.10L53.45 8.08C53.89 7.70 54.45 7.51 55.10 7.51C56.15 7.51 56.76 8.01 56.76 8.90L56.76 9.45L56.58 9.39C53.71 8.31 52.14 9.79 52.14 11.21C52.14 12.45 53.19 13.34 54.50 13.34ZM54.92 12.25C54.09 12.25 53.62 11.72 53.62 11.11C53.62 10.34 54.51 9.57 56.57 10.30L56.76 10.35L56.76 10.54C56.76 11.62 55.88 12.25 54.92 12.25ZM62.97 13.34C63.89 13.34 64.63 13.07 65.25 12.60L64.43 11.58C64.06 11.93 63.55 12.13 63 12.13C61.70 12.13 60.93 11.14 60.93 9.84C60.93 8.55 61.70 7.57 63 7.57C63.55 7.57 64.06 7.77 64.43 8.12L65.25 7.10C64.63 6.64 63.89 6.36 62.97 6.36C60.91 6.36 59.49 7.89 59.49 9.84C59.49 11.81 60.91 13.34 62.97 13.34ZM70.86 13.15L72.68 13.15L69.62 9.13L72.29 6.53L70.48 6.53L67.75 9.17L67.75 3.24L66.34 3.24L66.34 13.15L67.75 13.15L67.75 10.94L68.64 10.08ZM79.76 9.70C79.76 7.73 78.43 6.36 76.50 6.36C74.51 6.36 73.09 7.89 73.09 9.84C73.09 11.80 74.49 13.31 76.66 13.31C77.82 13.31 78.78 12.92 79.38 12.25L78.40 11.46C77.98 11.94 77.41 12.19 76.65 12.19C75.41 12.19 74.68 11.33 74.58 10.15L79.76 10.15ZM76.50 7.50C77.54 7.50 78.21 8.12 78.36 9.17L74.64 9.17C74.84 8.17 75.53 7.50 76.50 7.50ZM84.23 6.36C83.45 6.36 82.92 6.74 82.54 7.41L82.37 6.53L81.14 6.53L81.14 13.15L82.56 13.15L82.56 9.70C82.56 8.62 83.13 7.66 84.16 7.66C84.39 7.66 84.61 7.70 84.80 7.79L85.23 6.58C85.05 6.47 84.67 6.36 84.23 6.36Z">
        </path>
    </g>
    <defs data-v-fde0c5aa="">
        <!---->
    </defs>
    <g data-v-fde0c5aa="" id="37b17879-977a-439e-a204-1f8b5ff476d2" stroke="none" fill="#2FC0AB"
        transform="matrix(0.8980119695470501,0,0,0.8980119695470501,105.09940152264748,80.47915775312885)">
        <path
            d="M57.944 72.96c-2.78 2.585-5.121 4.764-6.866 6.619-1.746-1.855-4.085-4.034-6.866-6.619-5.792-5.391-13.198-12.297-18.709-19.654-.253-.063-.484-.197-.592-.452l-.382-.893a51.9 51.9 0 0 1-2.999-4.694h-3.665c8.472 16.644 30.198 31.923 33.213 37.521 3.223-5.982 27.802-23.016 34.752-40.956h-3.509C77.667 54.576 66.179 65.298 57.944 72.96zm28.864-32.127c.544-1.995.863-3.993.863-5.982 0-10.847-8.791-19.638-19.639-19.638-7.241 0-13.551 3.929-16.954 9.76-3.404-5.831-9.713-9.76-16.955-9.76-10.847 0-19.639 8.792-19.639 19.638 0 3.134.778 6.29 2.044 9.418H5v1.717h17.565l2.395 5.588a.853.853 0 0 0 .962.502.858.858 0 0 0 .687-.841v-7.271l1.47 3.765c.129.33.446.547.8.547h11.068a.856.856 0 0 0 .844-.705l2.358-12.873L45.2 53.857a.862.862 0 0 0 .721.759c.044.004.089.009.133.009a.86.86 0 0 0 .785-.51l6.595-14.886 3.664 12.625a.86.86 0 0 0 .78.619c.387.036.707-.197.841-.538l4.921-12.21 4.611 10.704c.139.323.402.527.816.519a.86.86 0 0 0 .78-.573l2.769-7.825H95v-1.718h-8.192zm-3.372 0H72.009a.861.861 0 0 0-.81.573l-2.238 6.33-4.556-10.582c-.137-.319-.402-.44-.801-.519a.858.858 0 0 0-.785.538l-4.764 11.816-3.628-12.5a.857.857 0 0 0-.767-.617c-.363-.006-.698.179-.843.509l-6.25 14.108-2.341-21.867a.86.86 0 0 0-.822-.766.831.831 0 0 0-.876.704L39.23 46.559h-9.766l-2.917-7.469a.851.851 0 0 0-.958-.532.86.86 0 0 0-.7.844v7.651l-.971-2.264a.86.86 0 0 0-.79-.52h-3.086c-1.425-3.16-2.314-6.324-2.314-9.418 0-9.039 7.354-16.392 16.393-16.392 5.793 0 11.216 3.123 14.151 8.149l2.804 4.802 2.804-4.802c2.935-5.026 8.358-8.149 14.15-8.149 9.04 0 16.394 7.354 16.394 16.392.002 1.971-.369 3.972-.988 5.982z">
        </path>
    </g>
    <!---->
</svg>